# xmcd
#
# Track frame offsets:
# 150
# 12060
# 27862
# 40105
# 52425
# 63445
# 76310
# 92470
# 102675
# 114470
# 128277
# 139990
# 151657
# 163747
# 175092
#
# Disc length: 2535 seconds
#
#
# Revision: 0
# Processed by: cddbd v1.5.1PL0 Copyright (c) Steve Scherf et al.
# Submitted via: FreeRIP 2.80 
#
DISCID=b909e50f
DTITLE=Drew's Famous - 30 Gretatest Country Songs
DYEAR=2004
DGENRE=Country
TTITLE0=Six Days on The Road
TTITLE1=The Devil Went Down To Georgia
TTITLE2=Crazy
TTITLE3=Okie From Muskogee
TTITLE4=On The Road Again
TTITLE5=I Fall To Pieces
TTITLE6=The Gambler
TTITLE7=Your cheatin Heart
TTITLE8=I Walk the Line
TTITLE9=I Will Always Love You
TTITLE10=King of The Road
TTITLE11=Take This Job and Shove It
TTITLE12=Stand By Your Man
TTITLE13=Orange Blossom Special
TTITLE14=Will The Cicle Be Unbroken
EXTD=
EXTT0=
EXTT1=
EXTT2=
EXTT3=
EXTT4=
EXTT5=
EXTT6=
EXTT7=
EXTT8=
EXTT9=
EXTT10=
EXTT11=
EXTT12=
EXTT13=
EXTT14=
PLAYORDER=
